<?xml version="1.0" encoding="utf-8"?><!-- Generator: Adobe Illustrator 16.0.0, SVG Export Plug-In . SVG Version: 6.00 Build 0)  --><!DOCTYPE svg PUBLIC "-//W3C//DTD SVG 1.1//EN" "http://www.w3.org/Graphics/SVG/1.1/DTD/svg11.dtd"><svg version="1.1" id="Layer_1" xmlns="http://www.w3.org/2000/svg" xmlns:xlink="http://www.w3.org/1999/xlink" x="0px" y="0px"	 width="14px" height="14px" viewBox="0 0 14 14" enable-background="new 0 0 14 14" xml:space="preserve"><path d="M7.978,7.014l3.831-3.832c0.265-0.264,0.266-0.693,0.001-0.957c-0.265-0.265-0.692-0.264-0.957,0L7.021,6.057L3.189,2.225	c-0.265-0.264-0.693-0.265-0.957,0C1.968,2.488,1.968,2.917,2.233,3.182l3.832,3.832l-3.832,3.832	c-0.265,0.265-0.265,0.693-0.001,0.957c0.264,0.265,0.693,0.264,0.957,0l3.832-3.832l3.832,3.832c0.265,0.264,0.692,0.265,0.957,0	c0.265-0.264,0.263-0.692-0.001-0.957L7.978,7.014z"/></svg>